<svg width="165" height="94" viewBox="0 0 165 94" fill="none" xmlns="http://www.w3.org/2000/svg">
<g clip-path="url(#clip0_1620_3)">
<mask id="mask0_1620_3" style="mask-type:luminance" maskUnits="userSpaceOnUse" x="0" y="0" width="165" height="94">
<path d="M164.862 0H7.62939e-06V94H164.862V0Z" fill="white"/>
</mask>
<g mask="url(#mask0_1620_3)">
<path d="M87.748 3.79263C89.9269 1.53081 92.8861 0.260132 95.9679 0.260132C109.832 0.260132 122.897 0.260139 135.763 0.260165C161.642 0.260219 174.6 32.7377 156.302 51.7322L116.443 93.1063C114.613 95.0058 111.484 93.6605 111.484 90.974V54.5334L116.09 49.7515C119.75 45.9527 117.158 39.4573 111.983 39.4573H53.39L87.748 3.79263Z" fill="#155DFC"/>
<path d="M77.1195 90.2028C74.941 92.4647 71.9817 93.7352 68.9 93.7352C55.0363 93.7352 41.971 93.7352 29.1044 93.7352C3.22618 93.7352 -9.73239 61.2578 8.56622 42.2632L48.425 0.889169C50.2549 -1.01028 53.3838 0.334986 53.3838 3.02121V39.462L48.7774 44.2438C45.1175 48.0426 47.7094 54.538 52.8852 54.538H111.478L77.1195 90.2028Z" fill="#155DFC"/>
</g>
</g>
<defs>
<clipPath id="clip0_1620_3">
<rect width="164.862" height="94" fill="white"/>
</clipPath>
</defs>
</svg>
