<svg width="123" height="29" viewBox="0 0 123 29" fill="none" xmlns="http://www.w3.org/2000/svg">
<path d="M47.3395 6.45455V21H44.2642V6.45455H47.3395ZM52.8384 14.6932V21H49.8129V6.45455H52.7532V12.0156H52.881C53.1272 11.3717 53.525 10.8674 54.0742 10.5028C54.6235 10.1335 55.3124 9.94886 56.141 9.94886C56.8986 9.94886 57.5591 10.1146 58.1225 10.446C58.6907 10.7727 59.131 11.2438 59.4435 11.8594C59.7608 12.4702 59.917 13.2017 59.9123 14.054V21H56.8867V14.5938C56.8915 13.9214 56.721 13.3982 56.3754 13.0241C56.0344 12.6501 55.5562 12.4631 54.9407 12.4631C54.5288 12.4631 54.1642 12.5507 53.8469 12.7259C53.5344 12.901 53.2882 13.1567 53.1083 13.4929C52.9331 13.8243 52.8432 14.2244 52.8384 14.6932ZM62.2933 21V10.0909H65.2266V11.9943H65.3402C65.5391 11.3172 65.8729 10.8059 66.3416 10.4602C66.8104 10.1098 67.3501 9.93466 67.9609 9.93466C68.1125 9.93466 68.2758 9.94413 68.451 9.96307C68.6262 9.98201 68.7801 10.008 68.9126 10.0412V12.7259C68.7706 12.6832 68.5741 12.6454 68.3232 12.6122C68.0722 12.5791 67.8426 12.5625 67.6342 12.5625C67.1892 12.5625 66.7914 12.6596 66.4411 12.8537C66.0954 13.0431 65.8208 13.3082 65.6172 13.6491C65.4183 13.9901 65.3189 14.383 65.3189 14.8281V21H62.2933ZM75.1626 21V6.45455H78.2379V18.4645H84.4737V21H75.1626ZM91.3825 21.2131C90.2792 21.2131 89.3252 20.9787 88.5202 20.5099C87.7201 20.0365 87.1022 19.3783 86.6665 18.5355C86.2309 17.688 86.0131 16.7055 86.0131 15.5881C86.0131 14.4612 86.2309 13.4763 86.6665 12.6335C87.1022 11.786 87.7201 11.1278 88.5202 10.6591C89.3252 10.1856 90.2792 9.94886 91.3825 9.94886C92.4857 9.94886 93.4374 10.1856 94.2376 10.6591C95.0425 11.1278 95.6628 11.786 96.0984 12.6335C96.534 13.4763 96.7518 14.4612 96.7518 15.5881C96.7518 16.7055 96.534 17.688 96.0984 18.5355C95.6628 19.3783 95.0425 20.0365 94.2376 20.5099C93.4374 20.9787 92.4857 21.2131 91.3825 21.2131ZM91.3967 18.8693C91.8986 18.8693 92.3176 18.7273 92.6538 18.4432C92.9899 18.1544 93.2433 17.7614 93.4137 17.2642C93.5889 16.767 93.6765 16.2012 93.6765 15.5668C93.6765 14.9323 93.5889 14.3665 93.4137 13.8693C93.2433 13.3722 92.9899 12.9792 92.6538 12.6903C92.3176 12.4015 91.8986 12.2571 91.3967 12.2571C90.89 12.2571 90.4639 12.4015 90.1183 12.6903C89.7773 12.9792 89.5193 13.3722 89.3441 13.8693C89.1737 14.3665 89.0884 14.9323 89.0884 15.5668C89.0884 16.2012 89.1737 16.767 89.3441 17.2642C89.5193 17.7614 89.7773 18.1544 90.1183 18.4432C90.4639 18.7273 90.89 18.8693 91.3967 18.8693ZM103.634 25.3182C102.654 25.3182 101.813 25.1832 101.113 24.9134C100.417 24.6482 99.8626 24.286 99.4506 23.8267C99.0387 23.3674 98.7712 22.8513 98.6481 22.2784L101.446 21.902C101.532 22.1198 101.667 22.3234 101.851 22.5128C102.036 22.7022 102.28 22.8537 102.583 22.9673C102.891 23.0857 103.265 23.1449 103.705 23.1449C104.363 23.1449 104.905 22.9839 105.331 22.6619C105.762 22.3447 105.978 21.812 105.978 21.0639V19.0682H105.85C105.717 19.3712 105.518 19.6577 105.253 19.9276C104.988 20.1974 104.647 20.4176 104.23 20.5881C103.814 20.7585 103.317 20.8438 102.739 20.8438C101.92 20.8438 101.174 20.6544 100.502 20.2756C99.8342 19.892 99.3015 19.3073 98.9038 18.5213C98.5108 17.7306 98.3143 16.7315 98.3143 15.5241C98.3143 14.2884 98.5155 13.2562 98.918 12.4276C99.3204 11.599 99.8555 10.9787 100.523 10.5668C101.195 10.1548 101.932 9.94886 102.732 9.94886C103.343 9.94886 103.854 10.053 104.266 10.2614C104.678 10.465 105.009 10.7206 105.26 11.0284C105.516 11.3314 105.712 11.6297 105.85 11.9233H105.963V10.0909H108.968V21.1065C108.968 22.0346 108.74 22.8111 108.286 23.4361C107.831 24.0611 107.202 24.5298 106.397 24.8423C105.596 25.1596 104.676 25.3182 103.634 25.3182ZM103.698 18.571C104.185 18.571 104.597 18.4503 104.934 18.2088C105.275 17.9626 105.535 17.6122 105.715 17.1577C105.9 16.6984 105.992 16.1491 105.992 15.5099C105.992 14.8707 105.902 14.3168 105.722 13.848C105.542 13.3745 105.282 13.0076 104.941 12.7472C104.6 12.4867 104.185 12.3565 103.698 12.3565C103.201 12.3565 102.782 12.4915 102.441 12.7614C102.1 13.0265 101.842 13.3958 101.667 13.8693C101.491 14.3428 101.404 14.8897 101.404 15.5099C101.404 16.1397 101.491 16.6842 101.667 17.1435C101.846 17.598 102.105 17.9508 102.441 18.2017C102.782 18.4479 103.201 18.571 103.698 18.571ZM116.304 21.2131C115.201 21.2131 114.247 20.9787 113.442 20.5099C112.642 20.0365 112.024 19.3783 111.588 18.5355C111.153 17.688 110.935 16.7055 110.935 15.5881C110.935 14.4612 111.153 13.4763 111.588 12.6335C112.024 11.786 112.642 11.1278 113.442 10.6591C114.247 10.1856 115.201 9.94886 116.304 9.94886C117.408 9.94886 118.359 10.1856 119.159 10.6591C119.964 11.1278 120.585 11.786 121.02 12.6335C121.456 13.4763 121.674 14.4612 121.674 15.5881C121.674 16.7055 121.456 17.688 121.02 18.5355C120.585 19.3783 119.964 20.0365 119.159 20.5099C118.359 20.9787 117.408 21.2131 116.304 21.2131ZM116.319 18.8693C116.82 18.8693 117.239 18.7273 117.576 18.4432C117.912 18.1544 118.165 17.7614 118.336 17.2642C118.511 16.767 118.598 16.2012 118.598 15.5668C118.598 14.9323 118.511 14.3665 118.336 13.8693C118.165 13.3722 117.912 12.9792 117.576 12.6903C117.239 12.4015 116.82 12.2571 116.319 12.2571C115.812 12.2571 115.386 12.4015 115.04 12.6903C114.699 12.9792 114.441 13.3722 114.266 13.8693C114.096 14.3665 114.01 14.9323 114.01 15.5668C114.01 16.2012 114.096 16.767 114.266 17.2642C114.441 17.7614 114.699 18.1544 115.04 18.4432C115.386 18.7273 115.812 18.8693 116.319 18.8693Z" fill="#132029"/>
<path fill-rule="evenodd" clip-rule="evenodd" d="M15.95 2.9C15.95 1.29837 17.2484 0 18.85 0H26.1C27.7016 0 29 1.29837 29 2.9V10.15C29 11.7516 27.7016 13.05 26.1 13.05H18.85C17.2484 13.05 15.95 11.7516 15.95 10.15V2.9ZM26.1 2.9H18.85V10.15H26.1V2.9ZM0.84939 6.64939C1.39325 6.10554 2.13087 5.8 2.9 5.8H10.15C10.9191 5.8 11.6568 6.10554 12.2006 6.64939C12.7445 7.19325 13.05 7.93087 13.05 8.7V15.95H20.3C21.0691 15.95 21.8068 16.2555 22.3506 16.7994C22.8945 17.3432 23.2 18.0809 23.2 18.85V26.1C23.2 26.8691 22.8945 27.6068 22.3506 28.1506C21.8068 28.6945 21.0691 29 20.3 29H2.9C2.13088 29 1.39325 28.6945 0.84939 28.1506C0.305534 27.6068 0 26.8691 0 26.1V8.7C0 7.93087 0.305535 7.19325 0.84939 6.64939ZM2.9 18.85V26.1H10.15V18.85H2.9ZM10.15 15.95H2.9V8.7H10.15V15.95ZM13.05 18.85V26.1H20.3V18.85H13.05Z" fill="black"/>
</svg>
